mtllib materials.mtl
v 0.02278332 0.006421447 0.2166031
v 0.1786363 0.001348615 0.1708817
v 0.1796677 -0.03616476 0.1794353
v 0.286545 -0.007217288 0.07942519
v 0.2863964 -0.02636671 0.08104345
v 0.3175954 -0.01698101 -0.03326073
v 0.3174468 -0.03613043 -0.03164247
v 0.2634675 -0.02532637 -0.136982
v 0.2633189 -0.04447579 -0.1353637
v 0.1386649 -0.03001714 -0.2039465
v 0.1385163 -0.04916656 -0.2023283
v -0.0233718 -0.0297966 -0.2162113
v -0.02352035 -0.04894602 -0.214593
v -0.1792248 -0.02472365 -0.1704899
v -0.1793734 -0.04387319 -0.1688716
v -0.2871334 -0.01615787 -0.07903342
v -0.287282 -0.03530729 -0.07741514
v -0.3181838 -0.006394148 0.03365251
v -0.3183324 -0.02554357 0.03527078
v -0.2640559 0.001951218 0.1373737
v -0.1436221 -0.02439177 0.2144434
v -0.2706803 -0.03246999 0.147961
v 0.02424872 -0.0321027 0.2237937
v -0.1444344 0.01348448 0.213119
v 0.0300547 0.0300169 0.198195
v 0.1674391 0.02217865 0.1580579
v 0.1637496 0.0002639294 0.1566809
v 0.02086329 0.004914761 0.1985984
v 0.2626805 -0.007589459 0.07283348
v 0.2631164 0.01729822 0.06834048
v 0.2911475 -0.01654077 -0.03047717
v 0.2416592 -0.006635547 -0.1270526
v 0.241523 -0.02419174 -0.125569
v 0.1272399 -0.0109359 -0.1884459
v 0.1271037 -0.02849209 -0.1869622
v -0.02286586 -0.00497818 -0.2011012
v -0.02145176 -0.02828979 -0.1982066
v -0.1642019 -0.006082535 -0.1577728
v -0.1643381 -0.02363884 -0.1562892
v -0.2631327 0.001770616 -0.07392535
v -0.2632689 -0.01578557 -0.07244171
v -0.2915998 0.01072204 0.0293853
v -0.2917359 -0.006834269 0.03086892
v -0.2419752 0.01837301 0.1244771
v -0.2421114 0.0008167028 0.1259607
v -0.1225608 0.0282681 0.1878616
v -0.127692 0.005117178 0.187354
v 0.2913595 0.01249111 -0.02839908
v 0.1408493 0.03121161 0.1318366
v 0.2258169 0.02446663 0.05982357
v 0.2256999 0.009388328 0.0610978
v 0.1407322 0.01613319 0.1331108
v 0.250266 0.01677871 -0.0289056
v 0.2515785 0.001370192 -0.02935773
v 0.2129582 0.02261138 -0.09589936
v 0.1093758 0.006514311 -0.1633042
v 0.1072254 -0.01068127 -0.1654378
v 0.2075287 -0.004870653 -0.1093018
v 0.001853168 0.01612043 -0.1721856
v -0.1409314 0.0106827 -0.1369605
v -0.1410484 -0.004395723 -0.1356862
v -0.01832928 -0.008390188 -0.1716873
v -0.225899 0.01742744 -0.06494747
v -0.226016 0.002349257 -0.06367323
v -0.2503482 0.02511549 0.02378172
v -0.2504651 0.01003718 0.02505592
v -0.2077277 0.03168654 0.1054521
v -0.2078447 0.01660824 0.1067263
v -0.1095748 0.02030158 0.1594545
v -0.1095918 0.04215991 0.145992
v 0.01801318 0.02012777 0.1691119
v -0.2279231 0.03781891 0.07669541
v 0.04537828 0.03431916 0.1598441
v -0.2233498 0.04483843 0.0633783
v 0.2010988 0.01685178 -0.1246684
v 0.02037022 0.04173481 0.1553327
v 0.01924142 0.03621125 -0.008525193
v -0.03473802 0.005734205 -0.1741914
vn 0.2811659 0.2206835 0.9339404
vn 0.6481527 0.05913092 0.7592112
vn 0.9642928 0.01486553 0.2644208
vn 0.8871183 -0.04569418 -0.4592744
vn 0.4736385 -0.07781029 -0.8772753
vn 0.07509062 -0.08454715 -0.993586
vn -0.282983 -0.07858485 -0.9559002
vn -0.6481528 -0.05913001 -0.7592112
vn -0.9642927 -0.0148674 -0.2644211
vn -0.887118 0.04569448 0.4592749
vn -0.4528052 0.3405863 0.8239954
vn -0.04637163 0.181582 0.9822819
vn 0.007729973 0.9964185 -0.0842049
vn -0.007729973 -0.9964185 0.0842049
vn -0.5361286 0.01801353 0.8439441
vn -0.01936122 0.03452603 0.9992162
vn 0.045749 0.9742911 -0.2205989
vn -0.05733146 -0.9720464 0.2276813
vn 0.2741405 0.1865215 0.9434282
vn -0.01171581 -0.9986603 0.0504021
vn 0.6569201 0.1847352 0.7309781
vn -0.001151072 -0.9949538 -0.1003275
vn -0.875588 0.2878315 0.3879417
vn 0.003393131 -0.9980218 -0.06277759
vn 0.2732657 -0.1060779 0.9560719
vn 0.6316881 -0.1540858 0.7597551
vn 0.9632848 0.01517742 0.2680523
vn 0.8871184 -0.04569479 -0.4592743
vn 0.4736386 -0.07781041 -0.8772753
vn 0.07876673 -0.1181353 -0.9898686
vn -0.2829829 -0.07858431 -0.9559003
vn -0.6481527 -0.05912922 -0.7592113
vn -0.9642927 -0.01486649 -0.2644212
vn -0.8871181 0.04569509 0.4592748
vn -0.4726438 0.08552645 0.8770935
vn -0.07548135 -0.005133126 0.9971341
vn 0.007730838 0.9964185 -0.08420457
vn -0.007730838 -0.9964185 0.08420457
vn -0.2894417 -0.1352222 -0.9475961
vn 0.0292161 0.992272 0.1205938
vn 0.6824248 0.1182687 0.7213244
vn 0.006069893 0.9988356 -0.04786132
vn 0.9592091 -0.02714917 0.2813907
vn 0.8907365 0.02597458 -0.4537773
vn -0.1195476 0.9842029 -0.1305873
vn -0.06796351 0.04090578 0.9968489
vn 0.001406573 0.9823539 -0.1870265
vn 0.01085055 0.995152 -0.09774853
vn -0.01476905 0.9917918 -0.1270069
vn 0.6481522 0.05912973 0.7592117
vn 0.963029 0.0744308 0.2589118
vn 0.8734931 0.08844825 -0.4787344
vn 0.4857272 0.04755711 -0.8728157
vn 0.09168286 0.1113186 -0.9895466
vn -0.2829824 -0.07858407 -0.9559004
vn -0.6481524 -0.05912882 -0.7592117
vn -0.9642925 -0.01486598 -0.2644218
vn -0.8871183 0.04569548 0.4592743
vn -0.4736395 0.07781038 0.8772749
vn -0.0636069 0.5233184 0.8497601
vn -0.2464348 0.8979784 0.364561
vn -0.007731382 -0.9964185 0.08420447
vn 0.007731382 0.9964185 -0.08420447
vn -0.7011985 0.7012318 0.1288202
vn 0.118211 0.8527311 -0.5087983
vn 0.2608419 0.9569767 0.1271109
vn -0.2555351 0.8886973 0.3806821
vn 0.03206091 0.9994169 -0.01174422
vn 0.005693244 0.9994148 -0.03372896
vn 0.01404767 0.9922697 -0.1233027
vn 0.05471629 0.9979224 -0.03401637
vn -0.0007918765 0.9925591 -0.1217616
vn 0.8663324 0.2804789 -0.4132795
vn 0.8757417 -0.07783316 -0.4764647
vn 0.04768049 0.9754618 -0.2149438
vn 0.007110628 0.5371226 0.8434742
vn 0.2829824 0.07858446 0.9559004
vn 0.2829824 0.07858446 0.9559004
vn 0.1089037 0.9937156 0.02586917
vn -0.05851581 0.5412964 0.8387932
vn -0.38802 0.9028627 -0.1851473
vn -0.0973425 0.9736877 -0.2060502
vn -0.01515775 0.9846109 -0.174102
vn -0.2395176 0.909466 -0.3398573
vn 0.05956526 -0.01710067 -0.998078
vn 0.04714558 -0.1210157 -0.9915304
vn 0.3890054 -0.4525062 -0.8024418
vn -0.3071334 -0.5003257 -0.8095327
vn -0.02539392 -0.9887041 0.1477139
vn -0.3775606 0.4853883 0.7885723
vn -0.7661245 -0.4706311 0.4376752
usemtl mat19
f 3//1 2//1 1//1
f 5//2 4//2 2//2
f 5//3 7//3 6//3 4//3
f 7//4 9//4 8//4 6//4
f 9//5 11//5 10//5 8//5
f 11//6 13//6 12//6 10//6
f 13//7 15//7 14//7 12//7
f 15//8 17//8 16//8 14//8
f 17//9 19//9 18//9 16//9
f 19//10 20//10 18//10
f 22//11 21//11 20//11
f 21//12 23//12 1//12
f 19//14 17//14 15//14 13//14 11//14 9//14 7//14 5//14
f 21//15 24//15 20//15
f 1//16 24//16 21//16
f 23//18 21//18 22//18
f 1//19 23//19 3//19
f 3//20 23//20 22//20
f 2//21 3//21 5//21
f 5//22 3//22 22//22
f 19//23 22//23 20//23
f 5//24 22//24 19//24
f 28//25 27//25 26//25 25//25
f 27//26 29//26 26//26
f 29//27 31//27 30//27
f 31//28 33//28 32//28
f 33//29 35//29 34//29 32//29
f 35//30 37//30 36//30 34//30
f 37//31 39//31 38//31
f 39//32 41//32 40//32 38//32
f 41//33 43//33 42//33 40//33
f 43//34 45//34 44//34 42//34
f 45//35 47//35 46//35 44//35
f 47//36 28//36 46//36
f 47//38 45//38 43//38 41//38 39//38 37//38 35//38 33//38 31//38 29//38 27//38 28//38
f 38//39 36//39 37//39
f 29//41 30//41 26//41
f 31//43 48//43 30//43
f 32//44 48//44 31//44
f 28//46 25//46 46//46
f 52//50 51//50 50//50 49//50
f 51//51 54//51 53//51 50//51
f 55//52 53//52 54//52
f 58//53 57//53 56//53
f 59//54 56//54 57//54
f 62//55 61//55 60//55
f 61//56 64//56 63//56 60//56
f 64//57 66//57 65//57 63//57
f 66//58 68//58 67//58 65//58
f 68//59 69//59 67//59
f 69//60 71//60 70//60
f 69//62 68//62 66//62 64//62 61//62 62//62 58//62 54//62 51//62 52//62 71//62
f 75//73 55//73 54//73
f 58//74 75//74 54//74
f 73//76 76//76 71//76
f 49//77 73//77 71//77
f 52//78 49//78 71//78
f 71//80 76//80 70//80
f 78//85 59//85 57//85
f 62//86 78//86 57//86
f 56//87 75//87 58//87
f 60//88 78//88 62//88
f 62//89 57//89 58//89
f 69//90 70//90 67//90
f 67//91 72//91 65//91
usemtl mat9
f 1//13 2//13 4//13 6//13 8//13 10//13 12//13 14//13 16//13 18//13 20//13
f 20//17 24//17 1//17
f 32//37 34//37 38//37 40//37 42//37 44//37
f 34//40 36//40 38//40
f 26//42 30//42 48//42
f 26//45 48//45 32//45
f 46//47 25//47 26//47
f 46//48 26//48 32//48
f 44//49 46//49 32//49
f 72//61 67//61 70//61
f 73//63 49//63 50//63 53//63
f 65//64 72//64 74//64
f 75//65 56//65 59//65
f 76//66 73//66 55//66
f 74//67 72//67 70//67
f 77//68 74//68 70//68
f 76//69 77//69 70//69
f 59//70 77//70 55//70
f 55//71 77//71 76//71
f 74//72 77//72 59//72
f 59//75 55//75 75//75
f 53//79 55//79 73//79
f 63//81 65//81 74//81
f 60//82 63//82 74//82
f 78//83 60//83 74//83
f 59//84 78//84 74//84
